<svg version="1.1" xmlns="http://www.w3.org/2000/svg" xmlns:xlink="http://www.w3.org/1999/xlink" viewBox="49.5 36.7 11 11">
<g>
	<path fill="#1A1A1A" d="M59.6,42.8C59.6,42.8,59.6,42.8,59.6,42.8l-9.2-0.1c-0.3,0-0.6-0.3-0.6-0.6c0-0.3,0.3-0.6,0.6-0.6
		c0,0,0,0,0,0l9.2,0.1c0.3,0,0.6,0.3,0.6,0.6C60.3,42.6,60,42.8,59.6,42.8z"/>
	<path fill="#1A1A1A" d="M55,47.4C55,47.4,55,47.4,55,47.4c-0.4,0-0.6-0.3-0.6-0.6l0.1-9.2c0-0.3,0.2-0.6,0.6-0.6
		c0.3,0,0.6,0.3,0.6,0.6l-0.1,9.2C55.6,47.1,55.4,47.4,55,47.4z"/>
</g>
</svg>
